<svg width="50" height="53" viewBox="0 0 50 53" fill="none" xmlns="http://www.w3.org/2000/svg">
<g clip-path="url(#clip0_501_2)">
<path d="M32.3644 0H1.85089C0.834202 0 0 0.834202 0 1.85089V10.9489C0 11.7049 0.143378 12.122 0.508342 12.487C3.11522 15.0938 8.4463 20.4249 11.0532 23.0318C11.2226 23.2013 11.4703 23.097 11.4703 22.8754V12.109C11.4703 11.8874 11.2878 11.6919 11.0532 11.6919H2.71116C2.16371 11.6919 1.73358 11.2487 1.73358 10.7143V2.71116C1.73358 2.16371 2.17675 1.73358 2.71116 1.73358H30.683C31.2304 1.73358 31.6606 2.17675 31.6606 2.71116V10.7273C31.6606 11.2748 31.2174 11.7049 30.683 11.7049H22.341C22.1064 11.7049 21.9239 11.8874 21.9239 12.122V43.3394C21.9239 43.8869 21.4807 44.317 20.9463 44.317H12.6564C12.4348 44.317 12.2914 44.5907 12.4479 44.7471C14.2596 46.5589 17.9223 50.2216 19.7732 52.0725C20.2685 52.5678 20.9202 52.9849 21.7544 52.9849H29.7185C30.4745 52.9849 31.0871 52.3723 31.0871 51.6163V33.0292C31.0871 32.7946 31.2696 32.6121 31.5042 32.6121H32.3775C41.3321 32.6121 50.013 27.1507 50.013 16.2539C50.013 6.54328 43.3264 0.0130344 32.3775 0.0130344L32.3644 0Z" fill="white"/>
</g>
<defs>
<clipPath id="clip0_501_2">
<rect width="50" height="52.9718" fill="white"/>
</clipPath>
</defs>
</svg>
