<svg width="50" height="50" viewBox="0 0 112 120" fill="none" xmlns="http://www.w3.org/2000/svg">
<path fill-rule="evenodd" clip-rule="evenodd" d="M1.91801 0.58656C1.39056 0.90786 0.74323 1.53469 0.479503 1.97951C0.0175019 2.75922 0 3.22006 0 14.6796C0 25.3803 0.0405179 26.6434 0.403981 27.2986C1.10573 28.5632 25.0123 52.5547 25.2904 52.2732C25.4559 52.1057 25.5172 47.8038 25.4758 39.2967L25.4137 26.5706L15.2894 26.4493L5.16521 26.3279L4.50062 25.6552L3.83603 24.9828L3.76122 16.0696C3.72023 11.1676 3.75571 6.67888 3.84034 6.09477C3.93265 5.45896 4.22251 4.80205 4.56367 4.45672L5.13284 3.88061H37.3576H69.5824L70.2146 4.5203L70.8466 5.16023V15.0953V25.0306L70.1458 25.7399L69.445 26.4493H59.5248C52.1287 26.4493 49.5315 26.5233 49.3169 26.7405C49.0956 26.9645 49.0292 35.3496 49.0292 63.0066V98.9815L48.4509 99.6625L47.8724 100.343L37.845 100.465C29.1859 100.57 27.8081 100.636 27.7489 100.95C27.6477 101.487 44.8077 118.717 46.1522 119.429L47.2311 120H57.3428C67.1923 120 67.4721 119.987 68.1317 119.497C68.504 119.221 68.9974 118.62 69.2278 118.163C69.6176 117.389 69.6471 115.82 69.6474 95.8418C69.6479 79.4524 69.7162 74.2839 69.9356 74.0619C70.1276 73.8675 71.1863 73.7706 73.1185 73.7706C81.7251 73.7706 90.5113 71.1071 97.2771 66.4472C101.759 63.3599 106.195 58.148 108.461 53.306C113.362 42.8346 113.157 29.1568 107.944 18.8354C104.773 12.5564 99.8312 7.71826 93.2708 4.47055C88.6328 2.17437 84.3722 0.933826 78.7647 0.246817C77.457 0.0864092 63.5738 -0.00143823 39.805 1.7814e-05L2.87702 0.00244414L1.91801 0.58656Z" fill="url(#paint0_linear_874_191)"/>
<defs>
<linearGradient id="paint0_linear_874_191" x1="1.48981e-06" y1="63.12" x2="112.077" y2="63.12" gradientUnits="userSpaceOnUse">
<stop stop-color="#780096"/>
<stop offset="1" stop-color="#E40276"/>
</linearGradient>
</defs>
</svg>
